<svg width="66" height="88" viewBox="0 0 66 88" fill="none" xmlns="http://www.w3.org/2000/svg">
<rect y="22.1816" width="66" height="61.8184" rx="30.9092" fill="#D9D9D9"/>
<g clip-path="url(#clip0_133_98)">
<path d="M42.8468 37.3829C42.9571 37.2898 43.0881 37.2159 43.2324 37.1655C43.3767 37.1151 43.5313 37.0891 43.6875 37.0891C43.8437 37.0891 43.9984 37.1151 44.1427 37.1655C44.2869 37.2159 44.418 37.2898 44.5283 37.3829L51.6533 43.3829C51.7639 43.4758 51.8516 43.5861 51.9115 43.7076C51.9713 43.8291 52.0022 43.9594 52.0022 44.0909C52.0022 44.2224 51.9713 44.3527 51.9115 44.4742C51.8516 44.5957 51.7639 44.706 51.6533 44.7989L27.9033 64.7989C27.7893 64.8942 27.6536 64.969 27.5043 65.0189L15.6293 69.0189C15.4135 69.0916 15.1771 69.1094 14.9494 69.0701C14.7217 69.0308 14.5127 68.936 14.3483 68.7976C14.1839 68.6592 14.0714 68.4832 14.0247 68.2915C13.978 68.0997 13.9991 67.9006 14.0855 67.7189L18.8355 57.7189C18.8947 57.5932 18.9836 57.4789 19.0968 57.3829L42.8468 37.3829V37.3829ZM40.6167 42.0909L46.0625 46.6769L49.1334 44.0909L43.6875 39.5049L40.6167 42.0909ZM44.3834 48.0909L38.9375 43.5049L23.5 56.5049V57.0909H24.6875C25.0025 57.0909 25.3045 57.1963 25.5272 57.3838C25.7499 57.5713 25.875 57.8257 25.875 58.0909V59.0909H27.0625C27.3775 59.0909 27.6795 59.1963 27.9022 59.3838C28.1249 59.5713 28.25 59.8257 28.25 60.0909V61.0909H28.9459L44.3834 48.0909V48.0909ZM21.201 58.4409L20.9493 58.6529L17.3203 66.2949L26.3952 63.2389L26.6469 63.0269C26.4204 62.9556 26.2251 62.8278 26.0872 62.6605C25.9492 62.4933 25.8752 62.2945 25.875 62.0909V61.0909H24.6875C24.3726 61.0909 24.0705 60.9855 23.8478 60.798C23.6251 60.6105 23.5 60.3561 23.5 60.0909V59.0909H22.3125C22.0707 59.0907 21.8347 59.0284 21.6361 58.9123C21.4374 58.7961 21.2857 58.6317 21.201 58.4409V58.4409Z" fill="#212529"/>
</g>
<defs>
<clipPath id="clip0_133_98">
<rect width="38" height="32" fill="white" transform="translate(14 37.0908)"/>
</clipPath>
</defs>
</svg>
