<svg width="130" height="45" viewBox="0 0 130 45" fill="none" xmlns="http://www.w3.org/2000/svg">
<path d="M49.8745 23.752H76.6905V27.208H49.8745V23.752ZM53.1065 18.344H73.6505V21.704H53.1065V18.344ZM53.1065 11.016H73.4905V14.408H57.3305V20.008H53.1065V11.016ZM63.1865 28.968C69.5865 28.968 73.4585 30.92 73.4585 34.408C73.4585 37.896 69.5865 39.848 63.1865 39.848C56.7865 39.848 52.8825 37.896 52.8825 34.408C52.8825 30.92 56.7865 28.968 63.1865 28.968ZM63.1865 32.168C59.2185 32.168 57.2025 32.904 57.2025 34.408C57.2025 35.944 59.2185 36.616 63.1865 36.616C67.1545 36.616 69.1705 35.944 69.1705 34.408C69.1705 32.904 67.1545 32.168 63.1865 32.168ZM79.28 26.088H106.128V29.48H79.28V26.088ZM82.576 10.792H102.864V18.824H86.832V22.024H82.608V15.816H98.672V14.024H82.576V10.792ZM82.608 20.744H103.44V23.976H82.608V20.744ZM90.576 22.312H94.832V27.944H90.576V22.312ZM82.256 31.144H103.056V39.752H98.8V34.504H82.256V31.144Z" fill="black"/>
<rect y="8" width="41" height="37" rx="18.5" fill="#7949FF"/>
<path d="M6.8335 24.2972L17.4631 35.75L34.1668 17.25" stroke="black" stroke-width="2" stroke-linecap="round" stroke-linejoin="round"/>
</svg>
