<svg width="242" height="36" viewBox="0 0 242 36" fill="none" xmlns="http://www.w3.org/2000/svg">
<path d="M3.832 28.504C1.924 28.504 0.556 27.028 0.556 25.048C0.556 23.068 1.924 21.628 3.832 21.628C5.704 21.628 7.144 23.068 7.144 25.048C7.144 27.028 5.704 28.504 3.832 28.504ZM23.819 28.504C17.087 28.504 11.651 23.68 11.651 14.788C11.651 6.004 17.267 0.891999 24.035 0.891999C27.419 0.891999 30.119 2.476 31.847 4.276L29.039 7.696C27.671 6.364 26.159 5.464 24.107 5.464C20.111 5.464 17.087 8.92 17.087 14.608C17.087 20.44 19.787 23.896 24.035 23.896C26.303 23.896 28.103 22.816 29.507 21.268L32.315 24.616C30.119 27.172 27.275 28.504 23.819 28.504ZM45.5748 28.504C38.4828 28.504 33.6588 23.248 33.6588 14.572C33.6588 5.896 38.4828 0.891999 45.5748 0.891999C52.6308 0.891999 57.4548 5.932 57.4548 14.572C57.4548 23.248 52.6308 28.504 45.5748 28.504ZM45.5748 23.896C49.5348 23.896 52.0548 20.26 52.0548 14.572C52.0548 8.884 49.5348 5.464 45.5748 5.464C41.5788 5.464 39.0948 8.884 39.0948 14.572C39.0948 20.26 41.5788 23.896 45.5748 23.896ZM62.694 28V1.36H68.562L73.098 13.852C73.71 15.508 74.178 17.236 74.754 18.964H74.898C75.51 17.236 75.978 15.508 76.518 13.852L80.946 1.36H86.85V28H81.99V16.876C81.99 14.356 82.422 10.648 82.71 8.128H82.53L80.334 14.392L76.23 25.624H73.17L69.066 14.392L66.906 8.128H66.762C67.05 10.648 67.446 14.356 67.446 16.876V28H62.694ZM101.341 28.504C97.7414 28.504 94.2134 27.136 91.6214 24.652L94.6814 20.98C96.5534 22.744 99.1094 23.896 101.449 23.896C104.221 23.896 105.661 22.708 105.661 20.872C105.661 18.892 104.041 18.244 101.665 17.236L98.1014 15.724C95.4374 14.644 92.7014 12.448 92.7014 8.596C92.7014 4.24 96.5534 0.891999 101.917 0.891999C105.013 0.891999 108.109 2.116 110.269 4.312L107.605 7.66C105.877 6.256 104.113 5.464 101.917 5.464C99.5774 5.464 98.1014 6.508 98.1014 8.236C98.1014 10.144 100.009 10.864 102.277 11.764L105.769 13.204C108.973 14.536 111.097 16.624 111.097 20.44C111.097 24.796 107.461 28.504 101.341 28.504ZM126.074 28.504C119.558 28.504 115.706 24.868 115.706 16.048V1.36H120.998V16.516C120.998 22.024 122.942 23.896 126.074 23.896C129.206 23.896 131.258 22.024 131.258 16.516V1.36H136.37V16.048C136.37 24.868 132.59 28.504 126.074 28.504ZM142.78 28V1.36H151.528C157.396 1.36 161.932 3.412 161.932 9.748C161.932 15.832 157.396 18.532 151.672 18.532H148.108V28H142.78ZM148.108 14.32H151.312C154.984 14.32 156.748 12.772 156.748 9.748C156.748 6.616 154.804 5.608 151.132 5.608H148.108V14.32ZM166.792 28V1.36H183.136V5.788H172.12V11.944H181.444V16.444H172.12V23.536H183.532V28H166.792ZM188.94 28V1.36H198.192C203.772 1.36 208.2 3.304 208.2 9.424C208.2 15.364 203.772 17.956 198.192 17.956H194.268V28H188.94ZM194.268 13.744H197.688C201.144 13.744 203.016 12.268 203.016 9.424C203.016 6.58 201.144 5.608 197.688 5.608H194.268V13.744ZM203.412 28L197.22 16.588L200.928 13.24L209.352 28H203.412ZM220.139 28.504C215.927 28.504 213.119 26.848 211.103 24.868L213.587 21.52C215.063 22.996 216.971 24.22 219.419 24.22C222.227 24.22 224.135 22.564 224.135 19.648C224.135 16.804 222.335 15.148 219.671 15.148C218.087 15.148 217.223 15.58 215.675 16.588L213.227 15.004L213.983 2.044H228.239V6.508H218.555L218.051 12.16C219.095 11.656 220.031 11.44 221.255 11.44C225.719 11.44 229.463 13.96 229.463 19.504C229.463 25.228 225.035 28.504 220.139 28.504ZM237.27 14.86C235.362 14.86 233.994 13.384 233.994 11.404C233.994 9.46 235.362 7.984 237.27 7.984C239.142 7.984 240.582 9.46 240.582 11.404C240.582 13.384 239.142 14.86 237.27 14.86ZM234.426 35.704L233.346 32.824C236.154 31.78 237.702 29.872 237.666 27.748L237.486 24.004L239.358 27.1C238.818 27.64 238.098 27.892 237.306 27.892C235.578 27.892 233.994 26.74 233.994 24.76C233.994 22.852 235.542 21.628 237.45 21.628C239.862 21.628 241.23 23.572 241.23 26.812C241.23 31.06 238.818 34.264 234.426 35.704Z" fill="white"/>
</svg>
