<svg width="57" height="30" viewBox="0 0 57 30" fill="none" xmlns="http://www.w3.org/2000/svg">
<path d="M21.1545 0.216H25.2185V29.848H21.1545V0.216ZM17.2825 11.64H22.2105V15.032H17.2825V11.64ZM14.5305 0.727999H18.4985V28.44H14.5305V0.727999ZM0.9945 3.48H5.2505V20.6H0.9945V3.48ZM0.9945 19H3.0425C5.8905 19 9.2185 18.84 12.8985 18.136L13.3145 21.784C9.4425 22.488 6.0505 22.648 3.0425 22.648H0.9945V19ZM35.296 10.136H39.552V15.576H35.296V10.136ZM45.728 10.136H49.952V15.576H45.728V10.136ZM29.28 14.264H56.064V17.624H29.28V14.264ZM42.624 19.128C49.024 19.128 52.896 21.048 52.896 24.472C52.896 27.928 49.024 29.848 42.624 29.848C36.192 29.848 32.32 27.928 32.32 24.472C32.32 21.048 36.192 19.128 42.624 19.128ZM42.624 22.328C38.656 22.328 36.64 23 36.64 24.472C36.64 25.976 38.656 26.648 42.624 26.648C46.592 26.648 48.608 25.976 48.608 24.472C48.608 23 46.592 22.328 42.624 22.328ZM42.688 0.631998C49.216 0.631998 53.408 2.808 53.408 6.36C53.408 9.88 49.216 11.992 42.688 11.992C36.128 11.992 31.968 9.88 31.968 6.36C31.968 2.808 36.128 0.631998 42.688 0.631998ZM42.688 3.896C38.624 3.896 36.352 4.696 36.352 6.36C36.352 7.992 38.624 8.792 42.688 8.792C46.752 8.792 49.024 7.992 49.024 6.36C49.024 4.696 46.752 3.896 42.688 3.896Z" fill="black"/>
</svg>
