<svg width="230" height="50" viewBox="0 0 314 50" fill="none" xmlns="http://www.w3.org/2000/svg">
<path d="M0.383625 39V3.48H7.58363L17.9036 22.44L21.5036 30.12H21.7436C21.3596 26.424 20.7836 21.672 20.7836 17.64V3.48H27.5516V39H20.3036L10.0316 19.992L6.43163 12.408H6.19163C6.52763 16.2 7.10363 20.664 7.10363 24.792V39H0.383625ZM46.9928 39.672C40.2248 39.672 34.0808 34.488 34.0808 25.608C34.0808 16.68 40.2248 11.496 46.9928 11.496C53.7128 11.496 59.8568 16.68 59.8568 25.608C59.8568 34.488 53.7128 39.672 46.9928 39.672ZM46.9928 33.96C50.6408 33.96 52.6568 30.648 52.6568 25.608C52.6568 20.52 50.6408 17.256 46.9928 17.256C43.2968 17.256 41.2808 20.52 41.2808 25.608C41.2808 30.648 43.2968 33.96 46.9928 33.96ZM74.0528 39.672C67.6688 39.672 65.2208 35.64 65.2208 29.64V17.688H61.4768V12.456L65.6528 12.168L66.4208 4.872H72.2768V12.168H78.9488V17.688H72.2768V29.64C72.2768 32.712 73.5728 34.152 75.9248 34.152C76.8368 34.152 77.8448 33.816 78.6128 33.528L79.7648 38.664C78.3248 39.144 76.4528 39.672 74.0528 39.672ZM84.4639 39V12.168H91.5199V39H84.4639ZM87.9679 7.8C85.5199 7.8 83.8879 6.264 83.8879 3.912C83.8879 1.608 85.5199 0.119997 87.9679 0.119997C90.4159 0.119997 92.0959 1.608 92.0959 3.912C92.0959 6.264 90.4159 7.8 87.9679 7.8ZM110.418 39.672C103.026 39.672 97.362 34.488 97.362 25.608C97.362 16.68 103.746 11.496 111.042 11.496C114.402 11.496 116.898 12.744 118.866 14.472L115.554 18.984C114.21 17.832 112.914 17.256 111.474 17.256C107.298 17.256 104.562 20.52 104.562 25.608C104.562 30.648 107.346 33.96 111.186 33.96C113.154 33.96 114.978 33 116.466 31.8L119.25 36.456C116.706 38.664 113.394 39.672 110.418 39.672ZM134.379 39.672C126.843 39.672 120.987 34.488 120.987 25.608C120.987 16.872 127.131 11.496 133.467 11.496C140.907 11.496 144.699 16.872 144.699 24.312C144.699 25.656 144.555 26.904 144.411 27.576H127.803C128.427 31.992 131.307 34.248 135.291 34.248C137.451 34.248 139.371 33.576 141.339 32.376L143.691 36.744C141.051 38.568 137.691 39.672 134.379 39.672ZM127.707 22.872H138.699C138.699 19.224 137.067 16.92 133.611 16.92C130.779 16.92 128.283 18.936 127.707 22.872ZM147.39 46.44V42.36H173.31V46.44H147.39ZM181.728 39L174.864 3.48H182.112L184.896 20.808C185.472 24.552 186 28.344 186.576 32.184H186.768C187.488 28.344 188.256 24.552 189.024 20.808L193.104 3.48H199.2L203.328 20.808C204.096 24.504 204.768 28.344 205.584 32.184H205.824C206.304 28.344 206.88 24.552 207.36 20.808L210.24 3.48H216.96L210.384 39H201.504L197.568 21.432C196.944 18.696 196.464 15.912 196.032 13.224H195.84C195.36 15.912 194.832 18.696 194.304 21.432L190.416 39H181.728ZM221.714 39V12.168H227.426L228.002 16.92H228.146C230.066 13.368 232.994 11.496 235.778 11.496C237.218 11.496 238.082 11.688 238.898 12.072L237.698 18.12C236.738 17.88 236.018 17.688 234.866 17.688C232.802 17.688 230.258 19.128 228.77 23.016V39H221.714ZM242.667 39V12.168H249.723V39H242.667ZM246.171 7.8C243.723 7.8 242.091 6.264 242.091 3.912C242.091 1.608 243.723 0.119997 246.171 0.119997C248.619 0.119997 250.299 1.608 250.299 3.912C250.299 6.264 248.619 7.8 246.171 7.8ZM267.037 39.672C260.653 39.672 258.205 35.64 258.205 29.64V17.688H254.461V12.456L258.637 12.168L259.405 4.872H265.261V12.168H271.933V17.688H265.261V29.64C265.261 32.712 266.557 34.152 268.909 34.152C269.821 34.152 270.829 33.816 271.597 33.528L272.749 38.664C271.309 39.144 269.437 39.672 267.037 39.672ZM287.988 39.672C280.452 39.672 274.596 34.488 274.596 25.608C274.596 16.872 280.74 11.496 287.076 11.496C294.516 11.496 298.308 16.872 298.308 24.312C298.308 25.656 298.164 26.904 298.02 27.576H281.412C282.036 31.992 284.916 34.248 288.9 34.248C291.06 34.248 292.98 33.576 294.948 32.376L297.3 36.744C294.66 38.568 291.3 39.672 287.988 39.672ZM281.316 22.872H292.308C292.308 19.224 290.676 16.92 287.22 16.92C284.388 16.92 281.892 18.936 281.316 22.872ZM308.151 21.48C305.607 21.48 303.783 19.512 303.783 16.872C303.783 14.28 305.607 12.312 308.151 12.312C310.647 12.312 312.567 14.28 312.567 16.872C312.567 19.512 310.647 21.48 308.151 21.48ZM304.359 49.272L302.919 45.432C306.663 44.04 308.727 41.496 308.679 38.664L308.439 33.672L310.935 37.8C310.215 38.52 309.255 38.856 308.199 38.856C305.895 38.856 303.783 37.32 303.783 34.68C303.783 32.136 305.847 30.504 308.391 30.504C311.607 30.504 313.431 33.096 313.431 37.416C313.431 43.08 310.215 47.352 304.359 49.272Z" fill="black"/>
</svg>
