<svg width="42" height="39" viewBox="0 0 42 39" fill="none" xmlns="http://www.w3.org/2000/svg">
<path fill-rule="evenodd" clip-rule="evenodd" d="M8.75 6.5H33.25C35.183 6.5 36.75 7.95507 36.75 9.75V29.25C36.75 31.0449 35.183 32.5 33.25 32.5H8.75C6.817 32.5 5.25 31.0449 5.25 29.25V9.75C5.25 7.95507 6.817 6.5 8.75 6.5Z" stroke="black" stroke-width="2" stroke-linecap="round" stroke-linejoin="round"/>
<path d="M5.25 25.5938L13.5094 17.9243C13.7555 17.6958 14.0894 17.5674 14.4375 17.5674C14.7856 17.5674 15.1194 17.6958 15.3656 17.9243L22.6969 24.732C22.943 24.9606 23.2769 25.089 23.625 25.089C23.9731 25.089 24.3069 24.9606 24.5531 24.732L27.9469 21.5806C28.193 21.352 28.5269 21.2236 28.875 21.2236C29.2231 21.2236 29.5569 21.352 29.8031 21.5806L36.75 28.0313" stroke="black" stroke-width="2" stroke-linecap="round" stroke-linejoin="round"/>
<ellipse cx="28.875" cy="13.8125" rx="2.625" ry="2.4375" fill="black"/>
</svg>
