<svg width="120" height="50" viewBox="0 0 161 50" fill="none" xmlns="http://www.w3.org/2000/svg">
<path d="M0.688313 39V3.48H7.88831L18.2083 22.44L21.8083 30.12H22.0483C21.6643 26.424 21.0883 21.672 21.0883 17.64V3.48H27.8563V39H20.6083L10.3363 19.992L6.73631 12.408H6.49631C6.83231 16.2 7.40831 20.664 7.40831 24.792V39H0.688313ZM47.2974 39.672C40.5294 39.672 34.3854 34.488 34.3854 25.608C34.3854 16.68 40.5294 11.496 47.2974 11.496C54.0174 11.496 60.1614 16.68 60.1614 25.608C60.1614 34.488 54.0174 39.672 47.2974 39.672ZM47.2974 33.96C50.9454 33.96 52.9614 30.648 52.9614 25.608C52.9614 20.52 50.9454 17.256 47.2974 17.256C43.6014 17.256 41.5854 20.52 41.5854 25.608C41.5854 30.648 43.6014 33.96 47.2974 33.96ZM74.3574 39.672C67.9734 39.672 65.5254 35.64 65.5254 29.64V17.688H61.7814V12.456L65.9574 12.168L66.7254 4.872H72.5814V12.168H79.2534V17.688H72.5814V29.64C72.5814 32.712 73.8774 34.152 76.2294 34.152C77.1414 34.152 78.1494 33.816 78.9174 33.528L80.0694 38.664C78.6294 39.144 76.7574 39.672 74.3574 39.672ZM84.7686 39V12.168H91.8246V39H84.7686ZM88.2726 7.8C85.8246 7.8 84.1926 6.264 84.1926 3.912C84.1926 1.608 85.8246 0.119997 88.2726 0.119997C90.7206 0.119997 92.4006 1.608 92.4006 3.912C92.4006 6.264 90.7206 7.8 88.2726 7.8ZM110.723 39.672C103.331 39.672 97.6667 34.488 97.6667 25.608C97.6667 16.68 104.051 11.496 111.347 11.496C114.707 11.496 117.203 12.744 119.171 14.472L115.859 18.984C114.515 17.832 113.219 17.256 111.779 17.256C107.603 17.256 104.867 20.52 104.867 25.608C104.867 30.648 107.651 33.96 111.491 33.96C113.459 33.96 115.283 33 116.771 31.8L119.555 36.456C117.011 38.664 113.699 39.672 110.723 39.672ZM134.684 39.672C127.148 39.672 121.292 34.488 121.292 25.608C121.292 16.872 127.436 11.496 133.772 11.496C141.212 11.496 145.004 16.872 145.004 24.312C145.004 25.656 144.86 26.904 144.716 27.576H128.108C128.732 31.992 131.612 34.248 135.596 34.248C137.756 34.248 139.676 33.576 141.644 32.376L143.996 36.744C141.356 38.568 137.996 39.672 134.684 39.672ZM128.012 22.872H139.004C139.004 19.224 137.372 16.92 133.916 16.92C131.084 16.92 128.588 18.936 128.012 22.872ZM154.846 21.48C152.302 21.48 150.478 19.512 150.478 16.872C150.478 14.28 152.302 12.312 154.846 12.312C157.342 12.312 159.262 14.28 159.262 16.872C159.262 19.512 157.342 21.48 154.846 21.48ZM151.054 49.272L149.614 45.432C153.358 44.04 155.422 41.496 155.374 38.664L155.134 33.672L157.63 37.8C156.91 38.52 155.95 38.856 154.894 38.856C152.59 38.856 150.478 37.32 150.478 34.68C150.478 32.136 152.542 30.504 155.086 30.504C158.302 30.504 160.126 33.096 160.126 37.416C160.126 43.08 156.91 47.352 151.054 49.272Z" fill="black"/>
</svg>
