<svg width="58" height="30" viewBox="0 0 58 30" fill="none" xmlns="http://www.w3.org/2000/svg">
<path d="M22.2505 0.216H26.2825V29.848H22.2505V0.216ZM12.4905 10.328H17.3865V13.784H12.4905V10.328ZM16.2665 0.695999H20.2345V28.504H16.2665V0.695999ZM6.0905 5.048H9.2905V8.088C9.2905 14.744 7.4665 21.368 2.7625 24.312L0.2345 21.176C4.5865 18.456 6.0905 13.144 6.0905 8.088V5.048ZM7.0505 5.048H10.2185V8.088C10.2185 13.016 11.6905 18.008 15.9785 20.504L13.4825 23.608C8.7785 20.824 7.0505 14.616 7.0505 8.088V5.048ZM1.3545 3.192H14.5705V6.616H1.3545V3.192ZM33.576 1.368H53.704V11.864H33.576V1.368ZM49.512 4.696H37.736V8.536H49.512V4.696ZM30.28 14.648H57.064V18.008H30.28V14.648ZM41.512 11.096H45.768V15.608H41.512V11.096ZM33.256 20.152H53.832V29.848H49.576V23.512H33.256V20.152Z" fill="black"/>
</svg>
