<svg width="1720" height="68" viewBox="0 0 1720 72" fill="none" xmlns="http://www.w3.org/2000/svg">
<rect width="1720" height="72" fill="#979797" fill-opacity="0.2"/>
<path d="M53.9659 19.7273V43H50.7386L38.9091 25.9318H38.6932V43H35.1818V19.7273H38.4318L50.2727 36.8182H50.4886V19.7273H53.9659ZM66.1676 43.3523C64.5313 43.3523 63.1032 42.9773 61.8835 42.2273C60.6638 41.4773 59.7169 40.428 59.0426 39.0795C58.3684 37.7311 58.0312 36.1553 58.0312 34.3523C58.0312 32.5417 58.3684 30.9583 59.0426 29.6023C59.7169 28.2462 60.6638 27.1932 61.8835 26.4432C63.1032 25.6932 64.5313 25.3182 66.1676 25.3182C67.804 25.3182 69.232 25.6932 70.4517 26.4432C71.6714 27.1932 72.6184 28.2462 73.2926 29.6023C73.9669 30.9583 74.304 32.5417 74.304 34.3523C74.304 36.1553 73.9669 37.7311 73.2926 39.0795C72.6184 40.428 71.6714 41.4773 70.4517 42.2273C69.232 42.9773 67.804 43.3523 66.1676 43.3523ZM66.179 40.5C67.2396 40.5 68.1184 40.2197 68.8153 39.6591C69.5123 39.0985 70.0275 38.3523 70.3608 37.4205C70.7017 36.4886 70.8722 35.4621 70.8722 34.3409C70.8722 33.2273 70.7017 32.2045 70.3608 31.2727C70.0275 30.3333 69.5123 29.5795 68.8153 29.0114C68.1184 28.4432 67.2396 28.1591 66.179 28.1591C65.1108 28.1591 64.2244 28.4432 63.5199 29.0114C62.8229 29.5795 62.304 30.3333 61.9631 31.2727C61.6297 32.2045 61.4631 33.2273 61.4631 34.3409C61.4631 35.4621 61.6297 36.4886 61.9631 37.4205C62.304 38.3523 62.8229 39.0985 63.5199 39.6591C64.2244 40.2197 65.1108 40.5 66.179 40.5ZM80.3352 43.2159C79.714 43.2159 79.1799 42.9962 78.733 42.5568C78.286 42.1098 78.0625 41.572 78.0625 40.9432C78.0625 40.322 78.286 39.7917 78.733 39.3523C79.1799 38.9053 79.714 38.6818 80.3352 38.6818C80.9564 38.6818 81.4905 38.9053 81.9375 39.3523C82.3845 39.7917 82.608 40.322 82.608 40.9432C82.608 41.3598 82.5019 41.7424 82.2898 42.0909C82.0852 42.4318 81.8125 42.7045 81.4716 42.9091C81.1307 43.1136 80.7519 43.2159 80.3352 43.2159Z" fill="black"/>
<path d="M1222.38 16.568H1225.03V31.16H1222.38V16.568ZM1224.3 22.552H1229.32V24.76H1224.3V22.552ZM1203.98 17.816H1206.63V28.92H1203.98V17.816ZM1203.98 27.512H1206.25C1210.38 27.512 1214.7 27.224 1219.4 26.264L1219.72 28.472C1214.86 29.464 1210.54 29.752 1206.25 29.752H1203.98V27.512ZM1206.66 32.536H1225.03V39.672H1209.35V44.056H1206.73V37.624H1222.41V34.68H1206.66V32.536ZM1206.73 42.968H1226.09V45.112H1206.73V42.968ZM1252.29 16.568H1254.95V45.496H1252.29V16.568ZM1253.61 28.056H1258.95V30.296H1253.61V28.056ZM1236.1 20.856H1238.05V25.144C1238.05 30.2 1237.03 36.504 1233.32 39.416L1231.62 37.496C1235.14 34.808 1236.1 29.272 1236.1 25.144V20.856ZM1236.65 20.856H1238.6V25.144C1238.6 28.888 1239.24 34.744 1242.85 37.688L1241.38 39.704C1237.41 36.6 1236.65 29.72 1236.65 25.144V20.856ZM1244.13 20.856H1246.09V25.144C1246.09 29.976 1245.29 36.664 1241.38 39.704L1239.88 37.688C1243.49 34.84 1244.13 29.112 1244.13 25.144V20.856ZM1244.68 20.856H1246.69V25.144C1246.69 29.464 1247.62 34.872 1251.17 37.496L1249.48 39.416C1245.73 36.536 1244.68 30.36 1244.68 25.144V20.856ZM1232.55 19.48H1240.77V21.688H1232.55V19.48ZM1241.99 19.48H1249.99V21.688H1241.99V19.48Z" fill="black"/>
<path d="M1511.93 17.784H1530.55V19.928H1511.93V17.784ZM1508.6 27.32H1534.81V29.496H1508.6V27.32ZM1528.82 17.784H1531.42V19.64C1531.42 21.72 1531.42 24.408 1530.65 27.992L1528.06 27.704C1528.82 24.184 1528.82 21.688 1528.82 19.64V17.784ZM1511.67 32.344H1531.51V39.704H1514.39V43.736H1511.74V37.656H1528.89V34.488H1511.67V32.344ZM1511.74 43.032H1532.25V45.176H1511.74V43.032ZM1538.01 31.512H1564.25V33.688H1538.01V31.512ZM1544.21 17.528H1546.26V20.152C1546.26 23.576 1544.18 27.48 1540.02 29.08L1538.74 27.128C1542.33 25.784 1544.21 22.584 1544.21 20.152V17.528ZM1544.79 17.528H1546.84V20.152C1546.84 22.552 1548.69 25.848 1552.12 27.32L1551.06 29.432C1546.77 27.768 1544.79 23.48 1544.79 20.152V17.528ZM1555.32 17.528H1557.37V20.152C1557.37 23.64 1555.35 27.8 1551.06 29.432L1550.01 27.32C1553.49 25.912 1555.32 22.68 1555.32 20.152V17.528ZM1555.89 17.528H1557.94V20.152C1557.94 22.872 1559.83 25.88 1563.41 27.128L1562.17 29.112C1557.97 27.576 1555.89 23.896 1555.89 20.152V17.528ZM1541.33 42.68H1561.37V44.856H1541.33V42.68ZM1541.33 36.312H1543.99V43.16H1541.33V36.312ZM1588.47 16.536H1591.12V45.528H1588.47V16.536ZM1575.86 18.776C1580.15 18.776 1583.22 22.712 1583.22 28.856C1583.22 35.032 1580.15 38.968 1575.86 38.968C1571.6 38.968 1568.53 35.032 1568.53 28.856C1568.53 22.712 1571.6 18.776 1575.86 18.776ZM1575.86 21.176C1573.04 21.176 1571.06 24.184 1571.06 28.856C1571.06 33.56 1573.04 36.632 1575.86 36.632C1578.71 36.632 1580.66 33.56 1580.66 28.856C1580.66 24.184 1578.71 21.176 1575.86 21.176Z" fill="black"/>
<path d="M426.584 16.568H429.144V45.496H426.584V16.568ZM416.056 26.936H421.592V29.144H416.056V26.936ZM420.792 17.24H423.288V44.024H420.792V17.24ZM410.488 21.048H412.536V24.728C412.536 31.064 410.104 37.048 405.848 39.736L404.216 37.752C408.248 35.32 410.488 30.04 410.488 24.728V21.048ZM411.032 21.048H413.08V24.728C413.08 29.752 415.256 34.776 419.224 37.08L417.592 39.032C413.368 36.472 411.032 30.776 411.032 24.728V21.048ZM405.016 19.928H418.232V22.136H405.016V19.928ZM437.366 17.752H456.822V27.608H437.366V17.752ZM454.198 19.896H439.958V25.464H454.198V19.896ZM434.006 31.224H460.15V33.368H434.006V31.224ZM445.782 27.032H448.406V32.024H445.782V27.032ZM436.918 36.344H456.918V45.496H454.262V38.52H436.918V36.344Z" fill="black"/>
</svg>
