<svg width="40" height="40" viewBox="0 0 40 40" fill="none" xmlns="http://www.w3.org/2000/svg">
<path d="M15.3629 25.625C15.0182 25.625 14.7228 25.5038 14.4766 25.2614C14.2304 25.0189 14.1091 24.7235 14.1129 24.375C14.1091 24.0341 14.2304 23.7424 14.4766 23.5C14.7228 23.2576 15.0182 23.1364 15.3629 23.1364C15.6963 23.1364 15.986 23.2576 16.2322 23.5C16.4822 23.7424 16.6091 24.0341 16.6129 24.375C16.6091 24.6061 16.5485 24.8163 16.4311 25.0057C16.3175 25.1951 16.166 25.3466 15.9766 25.4602C15.791 25.5701 15.5864 25.625 15.3629 25.625ZM20.0036 25.625C19.6589 25.625 19.3634 25.5038 19.1172 25.2614C18.871 25.0189 18.7498 24.7235 18.7536 24.375C18.7498 24.0341 18.871 23.7424 19.1172 23.5C19.3634 23.2576 19.6589 23.1364 20.0036 23.1364C20.3369 23.1364 20.6267 23.2576 20.8729 23.5C21.1229 23.7424 21.2498 24.0341 21.2536 24.375C21.2498 24.6061 21.1892 24.8163 21.0717 25.0057C20.9581 25.1951 20.8066 25.3466 20.6172 25.4602C20.4316 25.5701 20.227 25.625 20.0036 25.625ZM24.6442 25.625C24.2995 25.625 24.004 25.5038 23.7578 25.2614C23.5116 25.0189 23.3904 24.7235 23.3942 24.375C23.3904 24.0341 23.5116 23.7424 23.7578 23.5C24.004 23.2576 24.2995 23.1364 24.6442 23.1364C24.9775 23.1364 25.2673 23.2576 25.5135 23.5C25.7635 23.7424 25.8904 24.0341 25.8942 24.375C25.8904 24.6061 25.8298 24.8163 25.7124 25.0057C25.5987 25.1951 25.4472 25.3466 25.2578 25.4602C25.0722 25.5701 24.8677 25.625 24.6442 25.625Z" fill="black"/>
</svg>
