<svg width="40" height="40" viewBox="0 0 40 40" fill="none" xmlns="http://www.w3.org/2000/svg">
<path d="M16.0653 25.5V23.9773L20.1051 20.017C20.4915 19.6269 20.8134 19.2803 21.071 18.9773C21.3286 18.6742 21.5218 18.3807 21.6506 18.0966C21.7794 17.8125 21.8438 17.5095 21.8438 17.1875C21.8438 16.8201 21.7604 16.5057 21.5938 16.2443C21.4271 15.9792 21.1979 15.7746 20.9062 15.6307C20.6146 15.4867 20.2831 15.4148 19.9119 15.4148C19.5294 15.4148 19.1941 15.4943 18.9062 15.6534C18.6184 15.8087 18.3949 16.0303 18.2358 16.3182C18.0805 16.6061 18.0028 16.9489 18.0028 17.3466H15.9972C15.9972 16.608 16.1657 15.9659 16.5028 15.4205C16.84 14.875 17.304 14.4527 17.8949 14.1534C18.4896 13.8542 19.1714 13.7045 19.9403 13.7045C20.7206 13.7045 21.4063 13.8504 21.9972 14.142C22.5881 14.4337 23.0464 14.8333 23.3722 15.3409C23.7017 15.8485 23.8665 16.428 23.8665 17.0795C23.8665 17.5152 23.7831 17.9432 23.6165 18.3636C23.4498 18.7841 23.1563 19.25 22.7358 19.7614C22.3191 20.2727 21.7339 20.892 20.9801 21.6193L18.9744 23.6591V23.7386H24.0426V25.5H16.0653Z" fill="black"/>
</svg>
