<svg width="40" height="40" viewBox="0 0 40 40" fill="none" xmlns="http://www.w3.org/2000/svg">
<path d="M14.6989 13.7045C15.2557 13.7083 15.7973 13.8068 16.3239 14C16.8542 14.1894 17.3314 14.5 17.7557 14.9318C18.1799 15.3598 18.517 15.9337 18.767 16.6534C19.017 17.3731 19.142 18.2633 19.142 19.3239C19.1458 20.3239 19.0398 21.2178 18.8239 22.0057C18.6117 22.7898 18.3068 23.4527 17.9091 23.9943C17.5114 24.536 17.0322 24.9489 16.4716 25.233C15.911 25.517 15.2803 25.6591 14.5795 25.6591C13.8447 25.6591 13.1932 25.5152 12.625 25.2273C12.0606 24.9394 11.6042 24.5455 11.2557 24.0455C10.9072 23.5455 10.6932 22.9735 10.6136 22.3295H12.6875C12.7936 22.7917 13.0095 23.1591 13.3352 23.4318C13.6648 23.7008 14.0795 23.8352 14.5795 23.8352C15.3864 23.8352 16.0076 23.4848 16.4432 22.7841C16.8788 22.0833 17.0966 21.1098 17.0966 19.8636H17.017C16.8314 20.197 16.5909 20.4848 16.2955 20.7273C16 20.9659 15.6648 21.1496 15.2898 21.2784C14.9186 21.4072 14.5246 21.4716 14.108 21.4716C13.4261 21.4716 12.8125 21.3087 12.267 20.983C11.7254 20.6572 11.2955 20.2102 10.9773 19.642C10.6629 19.0739 10.5038 18.4242 10.5 17.6932C10.5 16.9356 10.6742 16.2557 11.0227 15.6534C11.375 15.0473 11.8655 14.5701 12.4943 14.2216C13.1231 13.8693 13.858 13.697 14.6989 13.7045ZM14.7045 15.4091C14.2955 15.4091 13.9261 15.5095 13.5966 15.7102C13.2708 15.9072 13.0133 16.1761 12.8239 16.517C12.6383 16.8542 12.5455 17.2311 12.5455 17.6477C12.5492 18.0606 12.642 18.4356 12.8239 18.7727C13.0095 19.1098 13.2614 19.3769 13.5795 19.5739C13.9015 19.7708 14.2689 19.8693 14.6818 19.8693C14.9886 19.8693 15.2746 19.8106 15.5398 19.6932C15.8049 19.5758 16.036 19.4129 16.233 19.2045C16.4337 18.9924 16.589 18.7519 16.6989 18.483C16.8125 18.214 16.8674 17.9299 16.8636 17.6307C16.8636 17.233 16.7689 16.8655 16.5795 16.5284C16.3939 16.1913 16.1383 15.9205 15.8125 15.7159C15.4905 15.5114 15.1212 15.4091 14.7045 15.4091ZM25.0739 13.7045C25.6307 13.7083 26.1723 13.8068 26.6989 14C27.2292 14.1894 27.7064 14.5 28.1307 14.9318C28.5549 15.3598 28.892 15.9337 29.142 16.6534C29.392 17.3731 29.517 18.2633 29.517 19.3239C29.5208 20.3239 29.4148 21.2178 29.1989 22.0057C28.9867 22.7898 28.6818 23.4527 28.2841 23.9943C27.8864 24.536 27.4072 24.9489 26.8466 25.233C26.286 25.517 25.6553 25.6591 24.9545 25.6591C24.2197 25.6591 23.5682 25.5152 23 25.2273C22.4356 24.9394 21.9792 24.5455 21.6307 24.0455C21.2822 23.5455 21.0682 22.9735 20.9886 22.3295H23.0625C23.1686 22.7917 23.3845 23.1591 23.7102 23.4318C24.0398 23.7008 24.4545 23.8352 24.9545 23.8352C25.7614 23.8352 26.3826 23.4848 26.8182 22.7841C27.2538 22.0833 27.4716 21.1098 27.4716 19.8636H27.392C27.2064 20.197 26.9659 20.4848 26.6705 20.7273C26.375 20.9659 26.0398 21.1496 25.6648 21.2784C25.2936 21.4072 24.8996 21.4716 24.483 21.4716C23.8011 21.4716 23.1875 21.3087 22.642 20.983C22.1004 20.6572 21.6705 20.2102 21.3523 19.642C21.0379 19.0739 20.8788 18.4242 20.875 17.6932C20.875 16.9356 21.0492 16.2557 21.3977 15.6534C21.75 15.0473 22.2405 14.5701 22.8693 14.2216C23.4981 13.8693 24.233 13.697 25.0739 13.7045ZM25.0795 15.4091C24.6705 15.4091 24.3011 15.5095 23.9716 15.7102C23.6458 15.9072 23.3883 16.1761 23.1989 16.517C23.0133 16.8542 22.9205 17.2311 22.9205 17.6477C22.9242 18.0606 23.017 18.4356 23.1989 18.7727C23.3845 19.1098 23.6364 19.3769 23.9545 19.5739C24.2765 19.7708 24.6439 19.8693 25.0568 19.8693C25.3636 19.8693 25.6496 19.8106 25.9148 19.6932C26.1799 19.5758 26.411 19.4129 26.608 19.2045C26.8087 18.9924 26.964 18.7519 27.0739 18.483C27.1875 18.214 27.2424 17.9299 27.2386 17.6307C27.2386 17.233 27.1439 16.8655 26.9545 16.5284C26.7689 16.1913 26.5133 15.9205 26.1875 15.7159C25.8655 15.5114 25.4962 15.4091 25.0795 15.4091Z" fill="black"/>
</svg>
