<svg width="40" height="40" viewBox="0 0 40 40" fill="none" xmlns="http://www.w3.org/2000/svg">
<path d="M19.9993 25.6591C19.1811 25.6591 18.4538 25.5189 17.8175 25.2386C17.1849 24.9583 16.6849 24.5682 16.3175 24.0682C15.95 23.5682 15.755 22.9905 15.7322 22.3352H17.8686C17.8875 22.6496 17.9917 22.9242 18.1811 23.1591C18.3705 23.3902 18.6224 23.5701 18.9368 23.6989C19.2512 23.8277 19.6035 23.892 19.9936 23.892C20.4103 23.892 20.7796 23.8201 21.1016 23.6761C21.4235 23.5284 21.6754 23.3239 21.8572 23.0625C22.0391 22.8011 22.1281 22.5 22.1243 22.1591C22.1281 21.8068 22.0372 21.4962 21.8516 21.2273C21.666 20.9583 21.397 20.7481 21.0447 20.5966C20.6963 20.4451 20.2758 20.3693 19.7834 20.3693H18.755V18.7443H19.7834C20.1887 18.7443 20.5429 18.6742 20.8459 18.5341C21.1527 18.3939 21.3932 18.197 21.5675 17.9432C21.7417 17.6856 21.8269 17.3883 21.8232 17.0511C21.8269 16.7216 21.7531 16.4356 21.6016 16.1932C21.4538 15.947 21.2436 15.7557 20.9709 15.6193C20.7019 15.483 20.3857 15.4148 20.022 15.4148C19.666 15.4148 19.3364 15.4792 19.0334 15.608C18.7304 15.7367 18.486 15.9205 18.3004 16.1591C18.1148 16.3939 18.0163 16.6742 18.005 17H15.9766C15.9917 16.3485 16.1792 15.7765 16.5391 15.2841C16.9027 14.7879 17.3875 14.4015 17.9936 14.125C18.5997 13.8447 19.2796 13.7045 20.0334 13.7045C20.8099 13.7045 21.4841 13.8504 22.0561 14.142C22.6319 14.4299 23.0769 14.8182 23.3913 15.3068C23.7057 15.7955 23.8629 16.3352 23.8629 16.9261C23.8667 17.5814 23.6735 18.1307 23.2834 18.5739C22.897 19.017 22.3894 19.3068 21.7607 19.4432V19.5341C22.5788 19.6477 23.2057 19.9508 23.6413 20.4432C24.0807 20.9318 24.2985 21.5398 24.2947 22.267C24.2947 22.9186 24.1091 23.5019 23.7379 24.017C23.3705 24.5284 22.8629 24.9299 22.2152 25.2216C21.5713 25.5133 20.8326 25.6591 19.9993 25.6591Z" fill="black"/>
</svg>
