<svg width="57" height="47" viewBox="0 0 57 47" fill="none" xmlns="http://www.w3.org/2000/svg">
<g clip-path="url(#clip0_43_38)">
<path d="M43.2702 0.428815C43.4356 0.292035 43.6322 0.183516 43.8486 0.109472C44.065 0.0354279 44.297 -0.00268555 44.5313 -0.00268555C44.7656 -0.00268555 44.9976 0.0354279 45.214 0.109472C45.4304 0.183516 45.627 0.292035 45.7924 0.428815L56.4799 9.24131C56.6458 9.37775 56.7774 9.53983 56.8672 9.71827C56.957 9.8967 57.0032 10.088 57.0032 10.2812C57.0032 10.4744 56.957 10.6657 56.8672 10.8441C56.7774 11.0226 56.6458 11.1846 56.4799 11.3211L20.8549 40.6961C20.684 40.836 20.4804 40.946 20.2564 41.0192L2.44392 46.8942C2.12021 47.001 1.7656 47.0272 1.42404 46.9694C1.08248 46.9116 0.768997 46.7725 0.522449 46.5692C0.275901 46.3659 0.107133 46.1074 0.0370676 45.8258C-0.0329977 45.5441 -0.00127894 45.2517 0.128292 44.9848L7.25329 30.2973C7.3421 30.1127 7.47541 29.9448 7.64517 29.8038L43.2702 0.428815V0.428815ZM39.925 7.34369L48.0938 14.0794L52.7001 10.2812L44.5313 3.5455L39.925 7.34369ZM45.5751 16.1562L37.4063 9.4205L14.25 28.5143V29.3749H16.0313C16.5037 29.3749 16.9568 29.5297 17.2908 29.8051C17.6249 30.0806 17.8125 30.4542 17.8125 30.8437V32.3124H19.5938C20.0662 32.3124 20.5193 32.4672 20.8533 32.7426C21.1874 33.0181 21.375 33.3917 21.375 33.7812V35.2499H22.4189L45.5751 16.1562V16.1562ZM10.8015 31.3578L10.4239 31.6691L4.98042 42.8933L18.5927 38.4048L18.9704 38.0934C18.6306 37.9888 18.3376 37.801 18.1307 37.5554C17.9238 37.3097 17.8128 37.0178 17.8125 36.7187V35.2499H16.0313C15.5589 35.2499 15.1058 35.0952 14.7718 34.8198C14.4377 34.5443 14.25 34.1707 14.25 33.7812V32.3124H12.4688C12.1061 32.3122 11.7521 32.2207 11.4541 32.0501C11.1562 31.8795 10.9285 31.6379 10.8015 31.3578V31.3578Z" fill="#212529"/>
</g>
<defs>
<clipPath id="clip0_43_38">
<rect width="57" height="47" fill="white"/>
</clipPath>
</defs>
</svg>
