<svg width="133" height="48" viewBox="0 0 105 47" fill="none" xmlns="http://www.w3.org/2000/svg">
<path d="M3.14638 37.5V13.82H10.9544C15.8184 13.82 19.5304 15.26 19.5304 19.676C19.5304 21.852 18.3464 24.06 16.3304 24.796V24.924C18.8584 25.532 20.7464 27.356 20.7464 30.524C20.7464 35.292 16.7784 37.5 11.5944 37.5H3.14638ZM7.88238 23.452H10.6344C13.6424 23.452 14.9224 22.268 14.9224 20.348C14.9224 18.268 13.5464 17.468 10.6984 17.468H7.88238V23.452ZM7.88238 33.852H11.1784C14.3784 33.852 16.1384 32.7 16.1384 30.268C16.1384 27.964 14.4424 26.972 11.1784 26.972H7.88238V33.852ZM32.0316 37.948C27.5196 37.948 23.4236 34.492 23.4236 28.572C23.4236 22.62 27.5196 19.164 32.0316 19.164C36.5116 19.164 40.6076 22.62 40.6076 28.572C40.6076 34.492 36.5116 37.948 32.0316 37.948ZM32.0316 34.14C34.4636 34.14 35.8076 31.932 35.8076 28.572C35.8076 25.18 34.4636 23.004 32.0316 23.004C29.5676 23.004 28.2236 25.18 28.2236 28.572C28.2236 31.932 29.5676 34.14 32.0316 34.14ZM48.3339 37.948C45.1339 37.948 43.0539 35.708 43.0539 32.636C43.0539 28.828 46.1579 26.812 53.3579 26.012C53.2619 24.252 52.5259 22.94 50.3179 22.94C48.6539 22.94 47.0219 23.644 45.3899 24.636L43.6939 21.5C45.8059 20.22 48.3339 19.164 51.1819 19.164C55.7259 19.164 58.0619 21.852 58.0619 27.068V37.5H54.2219L53.8699 35.612H53.7419C52.1739 36.956 50.3819 37.948 48.3339 37.948ZM49.8699 34.268C51.2139 34.268 52.2059 33.66 53.3579 32.54V28.924C48.9739 29.468 47.5339 30.652 47.5339 32.284C47.5339 33.66 48.4939 34.268 49.8699 34.268ZM62.8561 37.5V19.612H66.6641L67.0481 22.78H67.1441C68.4241 20.412 70.3761 19.164 72.2321 19.164C73.1921 19.164 73.7681 19.292 74.3121 19.548L73.5121 23.58C72.8721 23.42 72.3921 23.292 71.6241 23.292C70.2481 23.292 68.5521 24.252 67.5601 26.844V37.5H62.8561ZM82.5976 37.948C78.1176 37.948 75.2376 34.46 75.2376 28.572C75.2376 22.716 78.9176 19.164 82.7576 19.164C84.7736 19.164 86.0216 19.9 87.3336 21.084L87.1416 18.268V11.996H91.8456V37.5H88.0056L87.6536 35.644H87.5576C86.2456 36.956 84.4536 37.948 82.5976 37.948ZM83.7816 34.076C85.0616 34.076 86.1176 33.564 87.1416 32.252V24.38C86.0856 23.388 84.9336 23.004 83.8136 23.004C81.7976 23.004 80.0696 24.924 80.0696 28.508C80.0696 32.252 81.4456 34.076 83.7816 34.076ZM99.5434 25.82C97.8474 25.82 96.6314 24.508 96.6314 22.748C96.6314 21.02 97.8474 19.708 99.5434 19.708C101.207 19.708 102.487 21.02 102.487 22.748C102.487 24.508 101.207 25.82 99.5434 25.82ZM97.0154 44.348L96.0554 41.788C98.5514 40.86 99.9274 39.164 99.8954 37.276L99.7354 33.948L101.399 36.7C100.919 37.18 100.279 37.404 99.5754 37.404C98.0394 37.404 96.6314 36.38 96.6314 34.62C96.6314 32.924 98.0074 31.836 99.7034 31.836C101.847 31.836 103.063 33.564 103.063 36.444C103.063 40.22 100.919 43.068 97.0154 44.348Z" fill="#9440FF"/>
</svg>
