<svg width="141" height="33" viewBox="0 0 141 33" fill="none" xmlns="http://www.w3.org/2000/svg">
<path d="M0.865125 25V1.32H5.60113V21.032H15.2331V25H0.865125ZM25.8129 25.448C21.3009 25.448 17.2049 21.992 17.2049 16.072C17.2049 10.12 21.3009 6.664 25.8129 6.664C30.2929 6.664 34.3889 10.12 34.3889 16.072C34.3889 21.992 30.2929 25.448 25.8129 25.448ZM25.8129 21.64C28.2449 21.64 29.5889 19.432 29.5889 16.072C29.5889 12.68 28.2449 10.504 25.8129 10.504C23.3489 10.504 22.0049 12.68 22.0049 16.072C22.0049 19.432 23.3489 21.64 25.8129 21.64ZM44.6281 32.776C40.4361 32.776 37.1721 31.336 37.1721 28.2C37.1721 26.696 38.0681 25.384 39.7321 24.488V24.328C38.8041 23.72 38.1001 22.76 38.1001 21.288C38.1001 19.944 38.9961 18.728 40.1161 17.96V17.832C38.8681 16.936 37.6841 15.24 37.6841 13.128C37.6841 8.904 41.1401 6.664 44.9161 6.664C45.9401 6.664 46.9001 6.824 47.6361 7.112H54.1001V10.568H51.0281C51.5081 11.176 51.8601 12.168 51.8601 13.256C51.8601 17.32 48.7881 19.336 44.9161 19.336C44.2121 19.336 43.4121 19.208 42.6121 18.92C42.1321 19.368 41.8441 19.752 41.8441 20.488C41.8441 21.416 42.5801 21.96 44.6601 21.96H47.7321C52.0521 21.96 54.4201 23.272 54.4201 26.44C54.4201 30.056 50.6121 32.776 44.6281 32.776ZM44.9161 16.456C46.4841 16.456 47.7321 15.24 47.7321 13.128C47.7321 11.016 46.5161 9.864 44.9161 9.864C43.3481 9.864 42.1001 11.016 42.1001 13.128C42.1001 15.24 43.3481 16.456 44.9161 16.456ZM45.3641 29.8C48.0521 29.8 49.8761 28.616 49.8761 27.24C49.8761 25.96 48.8201 25.608 46.9001 25.608H44.7241C43.6361 25.608 42.9001 25.544 42.2601 25.352C41.4281 26.024 41.0761 26.728 41.0761 27.464C41.0761 28.968 42.7401 29.8 45.3641 29.8ZM55.3379 29.96V27.24H72.6179V29.96H55.3379ZM85.3981 25.448C79.0941 25.448 74.8061 20.776 74.8061 13.064C74.8061 5.352 79.0941 0.903999 85.3981 0.903999C91.6701 0.903999 95.9581 5.384 95.9581 13.064C95.9581 20.776 91.6701 25.448 85.3981 25.448ZM85.3981 21.352C88.9181 21.352 91.1581 18.12 91.1581 13.064C91.1581 8.008 88.9181 4.968 85.3981 4.968C81.8461 4.968 79.6381 8.008 79.6381 13.064C79.6381 18.12 81.8461 21.352 85.3981 21.352ZM105.575 25.448C101.703 25.448 100.007 22.792 100.007 18.28V7.112H104.711V17.704C104.711 20.456 105.479 21.416 107.239 21.416C108.711 21.416 109.671 20.776 110.887 19.176V7.112H115.559V25H111.719L111.367 22.44H111.271C109.703 24.264 108.007 25.448 105.575 25.448ZM127.134 25.448C122.878 25.448 121.246 22.76 121.246 18.76V10.792H118.75V7.304L121.534 7.112L122.046 2.248H125.95V7.112H130.398V10.792H125.95V18.76C125.95 20.808 126.814 21.768 128.382 21.768C128.99 21.768 129.662 21.544 130.174 21.352L130.942 24.776C129.982 25.096 128.734 25.448 127.134 25.448ZM136.825 13.32C135.129 13.32 133.913 12.008 133.913 10.248C133.913 8.52 135.129 7.208 136.825 7.208C138.489 7.208 139.769 8.52 139.769 10.248C139.769 12.008 138.489 13.32 136.825 13.32ZM134.297 31.848L133.337 29.288C135.833 28.36 137.209 26.664 137.177 24.776L137.017 21.448L138.681 24.2C138.201 24.68 137.561 24.904 136.857 24.904C135.321 24.904 133.913 23.88 133.913 22.12C133.913 20.424 135.289 19.336 136.985 19.336C139.129 19.336 140.345 21.064 140.345 23.944C140.345 27.72 138.201 30.568 134.297 31.848Z" fill="white"/>
</svg>
