<svg width="346" height="266" viewBox="0 0 346 266" fill="none" xmlns="http://www.w3.org/2000/svg">
<path d="M90.6113 257.504C88.7033 257.504 87.3353 256.028 87.3353 254.048C87.3353 252.068 88.7033 250.628 90.6113 250.628C92.4833 250.628 93.9233 252.068 93.9233 254.048C93.9233 256.028 92.4833 257.504 90.6113 257.504ZM110.598 257.504C103.866 257.504 98.4303 252.68 98.4303 243.788C98.4303 235.004 104.046 229.892 110.814 229.892C114.198 229.892 116.898 231.476 118.626 233.276L115.818 236.696C114.45 235.364 112.938 234.464 110.886 234.464C106.89 234.464 103.866 237.92 103.866 243.608C103.866 249.44 106.566 252.896 110.814 252.896C113.082 252.896 114.882 251.816 116.286 250.268L119.094 253.616C116.898 256.172 114.054 257.504 110.598 257.504ZM132.354 257.504C125.262 257.504 120.438 252.248 120.438 243.572C120.438 234.896 125.262 229.892 132.354 229.892C139.41 229.892 144.234 234.932 144.234 243.572C144.234 252.248 139.41 257.504 132.354 257.504ZM132.354 252.896C136.314 252.896 138.834 249.26 138.834 243.572C138.834 237.884 136.314 234.464 132.354 234.464C128.358 234.464 125.874 237.884 125.874 243.572C125.874 249.26 128.358 252.896 132.354 252.896ZM149.473 257V230.36H155.341L159.877 242.852C160.489 244.508 160.957 246.236 161.533 247.964H161.677C162.289 246.236 162.757 244.508 163.297 242.852L167.725 230.36H173.629V257H168.769V245.876C168.769 243.356 169.201 239.648 169.489 237.128H169.309L167.113 243.392L163.009 254.624H159.949L155.845 243.392L153.685 237.128H153.541C153.829 239.648 154.225 243.356 154.225 245.876V257H149.473ZM188.121 257.504C184.521 257.504 180.993 256.136 178.401 253.652L181.461 249.98C183.333 251.744 185.889 252.896 188.229 252.896C191.001 252.896 192.441 251.708 192.441 249.872C192.441 247.892 190.821 247.244 188.445 246.236L184.881 244.724C182.217 243.644 179.481 241.448 179.481 237.596C179.481 233.24 183.333 229.892 188.697 229.892C191.793 229.892 194.889 231.116 197.049 233.312L194.385 236.66C192.657 235.256 190.893 234.464 188.697 234.464C186.357 234.464 184.881 235.508 184.881 237.236C184.881 239.144 186.789 239.864 189.057 240.764L192.549 242.204C195.753 243.536 197.877 245.624 197.877 249.44C197.877 253.796 194.241 257.504 188.121 257.504ZM212.854 257.504C206.338 257.504 202.486 253.868 202.486 245.048V230.36H207.778V245.516C207.778 251.024 209.722 252.896 212.854 252.896C215.986 252.896 218.038 251.024 218.038 245.516V230.36H223.15V245.048C223.15 253.868 219.37 257.504 212.854 257.504ZM229.559 257V230.36H238.307C244.175 230.36 248.711 232.412 248.711 238.748C248.711 244.832 244.175 247.532 238.451 247.532H234.887V257H229.559ZM234.887 243.32H238.091C241.763 243.32 243.527 241.772 243.527 238.748C243.527 235.616 241.583 234.608 237.911 234.608H234.887V243.32ZM253.571 257V230.36H269.915V234.788H258.899V240.944H268.223V245.444H258.899V252.536H270.311V257H253.571ZM275.719 257V230.36H284.971C290.551 230.36 294.979 232.304 294.979 238.424C294.979 244.364 290.551 246.956 284.971 246.956H281.047V257H275.719ZM281.047 242.744H284.467C287.923 242.744 289.795 241.268 289.795 238.424C289.795 235.58 287.923 234.608 284.467 234.608H281.047V242.744ZM290.191 257L283.999 245.588L287.707 242.24L296.131 257H290.191ZM306.918 257.504C302.706 257.504 299.898 255.848 297.882 253.868L300.366 250.52C301.842 251.996 303.75 253.22 306.198 253.22C309.006 253.22 310.914 251.564 310.914 248.648C310.914 245.804 309.114 244.148 306.45 244.148C304.866 244.148 304.002 244.58 302.454 245.588L300.006 244.004L300.762 231.044H315.018V235.508H305.334L304.83 241.16C305.874 240.656 306.81 240.44 308.034 240.44C312.498 240.44 316.242 242.96 316.242 248.504C316.242 254.228 311.814 257.504 306.918 257.504ZM324.049 243.86C322.141 243.86 320.773 242.384 320.773 240.404C320.773 238.46 322.141 236.984 324.049 236.984C325.921 236.984 327.361 238.46 327.361 240.404C327.361 242.384 325.921 243.86 324.049 243.86ZM321.205 264.704L320.125 261.824C322.933 260.78 324.481 258.872 324.445 256.748L324.265 253.004L326.137 256.1C325.597 256.64 324.877 256.892 324.085 256.892C322.357 256.892 320.773 255.74 320.773 253.76C320.773 251.852 322.321 250.628 324.229 250.628C326.641 250.628 328.009 252.572 328.009 255.812C328.009 260.06 325.597 263.264 321.205 264.704Z" fill="white"/>
<g filter="url(#filter0_d_91_91)">
<path d="M58.4341 220.372L68.6953 208.161L72.2207 222.944L84.7793 213.347L80.3423 257H52.0566H27.6532L18.7793 221.559L27.6532 231.01V212.051L41.9139 224.217L49.8381 206L58.4341 220.372Z" fill="#D9D9D9"/>
<path d="M27.6532 257L68.6953 208.161L80.3423 257M27.6532 257L49.8381 206M27.6532 257L18.7793 221.559L52.0566 257L49.8381 231.5V206M27.6532 257H80.3423M27.6532 257V212.051L80.3423 257M27.6532 257L84.7793 213.347L80.3423 257M80.3423 257L49.8381 206" stroke="white"/>
<path d="M27.6532 257L68.6953 208.161L80.3423 257M27.6532 257L49.8381 206M27.6532 257L18.7793 221.559L52.0566 257L49.8381 231.5V206M27.6532 257H80.3423M27.6532 257V212.051L80.3423 257M27.6532 257L84.7793 213.347L80.3423 257M80.3423 257L49.8381 206" stroke="#0B0A0A"/>
</g>
<defs>
<filter id="filter0_d_91_91" x="13.8271" y="204.908" width="75.5664" height="60.5918" filterUnits="userSpaceOnUse" color-interpolation-filters="sRGB">
<feFlood flood-opacity="0" result="BackgroundImageFix"/>
<feColorMatrix in="SourceAlpha" type="matrix" values="0 0 0 0 0 0 0 0 0 0 0 0 0 0 0 0 0 0 127 0" result="hardAlpha"/>
<feOffset dy="4"/>
<feGaussianBlur stdDeviation="2"/>
<feComposite in2="hardAlpha" operator="out"/>
<feColorMatrix type="matrix" values="0 0 0 0 0 0 0 0 0 0 0 0 0 0 0 0 0 0 0.25 0"/>
<feBlend mode="normal" in2="BackgroundImageFix" result="effect1_dropShadow_91_91"/>
<feBlend mode="normal" in="SourceGraphic" in2="effect1_dropShadow_91_91" result="shape"/>
</filter>
</defs>
</svg>

