<svg width="107" height="33" viewBox="0 0 107 33" fill="none" xmlns="http://www.w3.org/2000/svg">
<path d="M0.458875 26V2.32H5.25888L12.1389 14.96L14.5389 20.08H14.6989C14.4429 17.616 14.0589 14.448 14.0589 11.76V2.32H18.5709V26H13.7389L6.89088 13.328L4.49088 8.272H4.33088C4.55488 10.8 4.93888 13.776 4.93888 16.528V26H0.458875ZM31.5316 26.448C27.0196 26.448 22.9236 22.992 22.9236 17.072C22.9236 11.12 27.0196 7.664 31.5316 7.664C36.0116 7.664 40.1076 11.12 40.1076 17.072C40.1076 22.992 36.0116 26.448 31.5316 26.448ZM31.5316 22.64C33.9636 22.64 35.3076 20.432 35.3076 17.072C35.3076 13.68 33.9636 11.504 31.5316 11.504C29.0676 11.504 27.7236 13.68 27.7236 17.072C27.7236 20.432 29.0676 22.64 31.5316 22.64ZM49.5716 26.448C45.3156 26.448 43.6836 23.76 43.6836 19.76V11.792H41.1876V8.304L43.9716 8.112L44.4836 3.248H48.3876V8.112H52.8356V11.792H48.3876V19.76C48.3876 21.808 49.2516 22.768 50.8196 22.768C51.4276 22.768 52.0996 22.544 52.6116 22.352L53.3796 25.776C52.4196 26.096 51.1716 26.448 49.5716 26.448ZM56.5124 26V8.112H61.2164V26H56.5124ZM58.8484 5.2C57.2164 5.2 56.1284 4.176 56.1284 2.608C56.1284 1.072 57.2164 0.079998 58.8484 0.079998C60.4804 0.079998 61.6004 1.072 61.6004 2.608C61.6004 4.176 60.4804 5.2 58.8484 5.2ZM73.8151 26.448C68.8871 26.448 65.1111 22.992 65.1111 17.072C65.1111 11.12 69.3671 7.664 74.2311 7.664C76.4711 7.664 78.1351 8.496 79.4471 9.648L77.2391 12.656C76.3431 11.888 75.4791 11.504 74.5191 11.504C71.7351 11.504 69.9111 13.68 69.9111 17.072C69.9111 20.432 71.7671 22.64 74.3271 22.64C75.6391 22.64 76.8551 22 77.8471 21.2L79.7031 24.304C78.0071 25.776 75.7991 26.448 73.8151 26.448ZM89.7891 26.448C84.7651 26.448 80.8611 22.992 80.8611 17.072C80.8611 11.248 84.9571 7.664 89.1811 7.664C94.1411 7.664 96.6691 11.248 96.6691 16.208C96.6691 17.104 96.5731 17.936 96.4771 18.384H85.4051C85.8211 21.328 87.7411 22.832 90.3971 22.832C91.8371 22.832 93.1171 22.384 94.4291 21.584L95.9971 24.496C94.2371 25.712 91.9971 26.448 89.7891 26.448ZM85.3411 15.248H92.6691C92.6691 12.816 91.5811 11.28 89.2771 11.28C87.3891 11.28 85.7251 12.624 85.3411 15.248ZM103.231 14.32C101.535 14.32 100.319 13.008 100.319 11.248C100.319 9.52 101.535 8.208 103.231 8.208C104.895 8.208 106.175 9.52 106.175 11.248C106.175 13.008 104.895 14.32 103.231 14.32ZM100.703 32.848L99.7429 30.288C102.239 29.36 103.615 27.664 103.583 25.776L103.423 22.448L105.087 25.2C104.607 25.68 103.967 25.904 103.263 25.904C101.727 25.904 100.319 24.88 100.319 23.12C100.319 21.424 101.695 20.336 103.391 20.336C105.535 20.336 106.751 22.064 106.751 24.944C106.751 28.72 104.607 31.568 100.703 32.848Z" fill="white"/>
</svg>
