<svg width="76" height="62" viewBox="0 0 76 62" fill="none" xmlns="http://www.w3.org/2000/svg">
<g filter="url(#filter0_d_43_19)">
<path d="M44.6548 16.3716L54.916 4.16102L58.4414 18.944L71 9.34746L66.563 53H38.2773H13.874L5 17.5593L13.874 27.0102V8.05085L28.1346 20.2167L36.0588 2L44.6548 16.3716Z" fill="#D9D9D9"/>
<path d="M13.874 53L54.916 4.16102L66.563 53M13.874 53L36.0588 2M13.874 53L5 17.5593L38.2773 53L36.0588 27.5V2M13.874 53H66.563M13.874 53V8.05085L66.563 53M13.874 53L71 9.34746L66.563 53M66.563 53L36.0588 2" stroke="white"/>
<path d="M13.874 53L54.916 4.16102L66.563 53M13.874 53L36.0588 2M13.874 53L5 17.5593L38.2773 53L36.0588 27.5V2M13.874 53H66.563M13.874 53V8.05085L66.563 53M13.874 53L71 9.34746L66.563 53M66.563 53L36.0588 2" stroke="#0B0A0A"/>
</g>
<defs>
<filter id="filter0_d_43_19" x="0.0477295" y="0.908203" width="75.5665" height="60.5918" filterUnits="userSpaceOnUse" color-interpolation-filters="sRGB">
<feFlood flood-opacity="0" result="BackgroundImageFix"/>
<feColorMatrix in="SourceAlpha" type="matrix" values="0 0 0 0 0 0 0 0 0 0 0 0 0 0 0 0 0 0 127 0" result="hardAlpha"/>
<feOffset dy="4"/>
<feGaussianBlur stdDeviation="2"/>
<feComposite in2="hardAlpha" operator="out"/>
<feColorMatrix type="matrix" values="0 0 0 0 0 0 0 0 0 0 0 0 0 0 0 0 0 0 0.25 0"/>
<feBlend mode="normal" in2="BackgroundImageFix" result="effect1_dropShadow_43_19"/>
<feBlend mode="normal" in="SourceGraphic" in2="effect1_dropShadow_43_19" result="shape"/>
</filter>
</defs>
</svg>
